<?xml version="1.0" standalone="no"?>
<!DOCTYPE svg PUBLIC "-//W3C//DTD SVG 20010904//EN"
 "http://www.w3.org/TR/2001/REC-SVG-20010904/DTD/svg10.dtd">
<svg version="1.0" xmlns="http://www.w3.org/2000/svg"
 width="256.000000pt" height="256.000000pt" viewBox="0 0 256.000000 256.000000"
 preserveAspectRatio="xMidYMid meet">
<metadata>
Created by potrace 1.14, written by Peter Selinger 2001-2017
</metadata>
<g transform="translate(0.000000,256.000000) scale(0.100000,-0.100000)"
fill="#000000" stroke="none">
<path d="M16 1580 c-1 -3 -2 -27 -2 -55 l1 -50 121 1 c93 0 121 -3 121 -13 0
-7 -4 -13 -9 -13 -7 0 -116 -80 -145 -106 -6 -6 -32 -24 -57 -40 -45 -28 -46
-30 -46 -80 0 -36 5 -56 17 -65 9 -8 14 -9 10 -3 -8 14 130 14 152 0 9 -6 12
-5 8 1 -8 14 131 12 152 -1 10 -6 12 -5 7 3 -9 15 53 12 73 -3 11 -8 13 -8 7
2 -5 9 3 11 34 9 25 -2 48 2 58 11 9 7 12 11 6 8 -7 -3 -11 8 -11 29 0 19 4
35 9 35 5 0 3 6 -5 14 -10 11 -44 14 -142 13 -100 -1 -130 2 -133 12 -3 8 0
11 7 7 6 -4 11 -3 11 1 0 5 12 16 28 25 15 9 36 25 47 35 11 11 55 43 98 71
l77 53 0 52 0 52 -246 0 c-135 1 -247 -2 -248 -5z"/>
<path d="M715 1583 c-11 -3 -34 -12 -51 -20 -41 -18 -47 -44 -49 -201 l-1
-123 31 -33 c22 -24 41 -35 65 -37 19 -2 41 -7 48 -12 8 -6 12 -5 12 2 0 13
22 10 32 -4 5 -7 8 -6 8 0 0 12 40 13 58 1 7 -4 12 -2 12 4 0 6 5 8 13 3 17
-10 37 -13 37 -4 0 11 44 8 52 -4 5 -6 8 -5 8 3 0 7 6 12 13 10 25 -5 115 13
125 25 16 21 25 69 28 162 4 124 -10 187 -47 209 -16 10 -33 15 -38 11 -5 -3
-12 -1 -15 4 -6 9 -304 12 -341 4z m300 -120 c8 -8 16 -22 16 -31 9 -115 0
-147 -40 -155 -15 -3 -72 -5 -125 -4 -118 3 -124 8 -124 104 0 97 10 104 149
102 81 -1 114 -5 124 -16z"/>
<path d="M1251 1580 c-4 -3 -7 -18 -5 -35 1 -16 -3 -36 -10 -44 -7 -10 -7 -13
0 -8 13 8 13 -91 0 -112 -6 -10 -6 -12 3 -7 15 10 11 -25 -4 -36 -7 -5 -6 -8
1 -8 12 0 13 -49 0 -69 -6 -9 -5 -12 1 -8 7 5 10 -8 8 -38 -2 -48 -3 -47 55
-47 14 0 28 -5 32 -12 6 -8 8 -7 8 2 0 6 8 12 18 12 16 0 17 15 16 198 -1 108
-2 202 -3 208 -1 10 -106 14 -120 4z"/>
<path d="M1466 1578 c3 -4 1 -8 -3 -8 -12 0 -10 -400 2 -401 5 0 63 -1 127 -1
76 -1 115 -5 111 -11 -4 -6 -1 -7 8 -1 8 5 43 10 79 10 125 3 122 2 111 22 -5
10 -6 24 -1 32 5 8 5 21 0 31 -11 19 -67 31 -75 15 -3 -7 -7 -7 -11 2 -3 6
-10 9 -16 6 -16 -10 -108 -10 -108 1 0 5 -4 5 -10 -1 -5 -5 -27 -8 -49 -6 -32
3 -40 8 -44 28 -2 13 -1 25 2 25 3 1 71 2 150 3 l145 1 3 47 c4 59 5 58 -169
55 -106 -2 -128 0 -131 13 -10 37 1 40 158 40 127 0 154 3 159 15 3 8 1 15 -3
15 -10 0 -9 19 1 35 3 6 3 17 -1 25 -5 13 -39 15 -223 16 -119 0 -215 -3 -212
-8z"/>
<path d="M1980 1581 c0 -3 11 -18 25 -33 14 -15 25 -30 25 -33 0 -3 27 -32 60
-64 33 -33 60 -64 60 -71 0 -10 -31 -46 -122 -142 -15 -15 -25 -28 -21 -28 3
0 -4 -9 -17 -20 -13 -11 -18 -21 -12 -21 22 -3 27 -4 41 -13 10 -6 12 -5 7 2
-5 8 11 11 54 8 l61 -3 42 51 c71 85 76 89 95 74 9 -7 28 -26 42 -43 66 -79
69 -81 145 -79 39 1 76 -3 83 -8 10 -8 11 -6 5 8 -4 10 -14 24 -22 31 -9 7
-12 13 -7 13 5 0 -15 24 -45 53 -30 28 -66 67 -81 86 l-26 34 43 44 c24 24 42
43 40 43 -3 0 13 17 33 38 81 81 82 77 -14 77 -94 0 -79 8 -175 -93 l-40 -43
-22 28 c-12 15 -26 31 -32 35 -5 4 -6 8 -2 8 4 0 -7 14 -25 32 -31 31 -37 32
-115 34 -46 1 -83 -1 -83 -5z"/>
<path d="M286 1062 c-12 -11 -6 -32 9 -32 10 0 15 -10 15 -30 0 -20 5 -30 15
-30 8 0 14 3 14 8 -5 27 3 52 16 52 8 0 15 7 15 16 0 9 -6 14 -12 11 -7 -2
-25 -1 -40 4 -14 4 -29 5 -32 1z"/>
<path d="M520 1064 c0 -7 -13 -10 -30 -8 -16 2 -30 -1 -30 -7 0 -6 -5 -7 -11
-3 -8 4 -8 0 0 -15 7 -12 8 -21 2 -21 -5 0 -7 -9 -4 -20 4 -16 14 -20 48 -20
39 0 43 2 43 25 0 14 -6 25 -12 25 -6 0 -5 4 3 9 10 7 11 13 2 27 -6 11 -11
14 -11 8z m-10 -38 c0 -2 -7 -6 -15 -10 -8 -3 -15 -1 -15 4 0 6 7 10 15 10 8
0 15 -2 15 -4z"/>
<path d="M1005 1057 c-27 -16 -29 -87 -2 -87 12 0 17 8 17 27 0 25 1 26 20 8
11 -10 17 -22 14 -27 -4 -5 6 -8 22 -6 24 3 27 7 29 40 0 23 -4 39 -12 42 -13
6 -17 -5 -13 -39 2 -16 0 -17 -14 -6 -9 7 -16 20 -16 27 0 8 -7 14 -16 14 -8
0 -12 5 -9 10 8 13 5 12 -20 -3z"/>
<path d="M1576 1061 c-4 -6 -11 -9 -16 -6 -10 6 -27 -24 -24 -42 1 -7 2 -20 3
-28 1 -11 14 -15 51 -15 28 0 51 3 51 8 10 67 5 77 -37 71 -4 0 -10 5 -14 11
-6 9 -9 9 -14 1z m42 -48 c-4 -24 -50 -24 -54 0 -2 13 5 17 28 17 23 0 29 -4
26 -17z"/>
<path d="M1765 1059 c-4 -5 -10 -7 -15 -4 -19 12 -35 -51 -19 -72 16 -19 86
-17 97 3 16 28 2 62 -29 73 -18 6 -31 6 -34 0z m40 -39 c-4 -6 -11 -8 -16 -5
-5 4 -9 -1 -9 -9 0 -20 -16 -21 -23 -2 -7 19 1 26 30 26 14 0 21 -4 18 -10z"/>
<path d="M1922 1058 c-18 -18 -16 -88 3 -88 18 0 21 19 13 83 -3 20 -1 20 -16
5z"/>
<path d="M2022 1061 c0 -3 0 -8 -2 -11 -1 -3 -2 -22 -3 -43 l-2 -37 46 0 c43
0 47 2 45 24 -1 20 -6 23 -33 22 -37 -2 -31 11 7 16 23 3 27 21 5 24 -5 1 -12
3 -15 4 -14 5 -49 6 -48 1z m72 -70 c3 -4 -6 -6 -19 -3 -14 2 -25 6 -25 8 0 8
39 4 44 -5z"/>
<path d="M2203 1054 c-7 -7 -13 -20 -13 -28 0 -8 6 -17 13 -19 10 -4 10 -6 0
-6 -7 -1 -13 -8 -13 -16 0 -11 12 -15 44 -15 50 0 62 15 37 44 -10 12 -11 16
-3 12 10 -6 13 -3 10 10 -2 12 -11 18 -22 16 -9 -2 -23 1 -29 6 -8 7 -16 5
-24 -4z m44 -30 c-3 -3 -12 -4 -19 -1 -8 3 -5 6 6 6 11 1 17 -2 13 -5z m6 -31
c-7 -2 -19 -2 -25 0 -7 3 -2 5 12 5 14 0 19 -2 13 -5z"/>
<path d="M621 1043 c-13 -10 -13 -12 -1 -13 10 0 11 -3 2 -12 -7 -7 -8 -17 -1
-30 10 -19 72 -25 98 -9 19 12 -1 21 -38 16 -26 -3 -31 0 -31 17 0 18 5 20 35
15 40 -6 55 7 26 22 -24 14 -68 10 -90 -6z"/>
<path d="M799 1043 c-4 -56 -2 -68 14 -71 11 -2 15 1 12 10 -4 9 4 14 25 16
22 2 30 -2 30 -14 0 -8 6 -14 13 -12 7 3 12 21 12 43 0 22 -5 40 -12 42 -8 3
-13 -4 -13 -15 0 -11 -7 -22 -15 -26 -8 -3 -15 -1 -15 4 0 6 -7 10 -16 10 -9
0 -14 6 -11 13 3 8 -1 14 -9 14 -8 0 -14 -6 -15 -14z"/>
<path d="M1194 1042 c-8 -8 -13 -21 -10 -29 3 -8 6 -21 6 -29 0 -18 83 -19 98
-1 11 14 10 53 -2 64 -14 14 -77 11 -92 -5z m74 -29 c-4 -22 -38 -30 -49 -12
-11 19 -2 29 27 29 19 0 25 -5 22 -17z"/>
<path d="M1377 1052 c-3 -4 -3 -23 -2 -42 1 -34 3 -35 43 -38 25 -2 42 1 42 7
0 6 -7 12 -15 12 -8 1 -21 2 -27 3 -7 0 -13 13 -12 28 0 25 -20 46 -29 30z"/>
</g>
</svg>
